<svg xmlns="http://www.w3.org/2000/svg" viewBox="0 0 598.2 191.93"><path d="M128 64c0 64-64 128-64 128S0 128 0 64a64 64 0 11128 0z" fill="#ff7800"/><path d="M205.63 80.25a28.09 28.09 0 01-39.1 0c-7.31-7.31-7.11-16.35-7.11-28.84s-.2-21.53 7.11-28.84a28.06 28.06 0 0139.1 0c7.31 7.31 7.21 16.35 7.21 28.84s.1 21.53-7.21 28.84zM195.17 31.1a11.72 11.72 0 00-9-3.86A11.94 11.94 0 00177 31.1c-2.74 3-3.45 6.4-3.45 20.31s.71 17.26 3.45 20.31a11.94 11.94 0 009.14 3.86 11.72 11.72 0 009-3.86c2.74-3 3.55-6.4 3.55-20.31s-.78-17.27-3.52-20.31zm67.74 56.46l-14.12-28.84h-10.15v28.84h-14.12V15.25h28.34c14.72 0 23.46 10.06 23.46 22.14a19.48 19.48 0 01-13.21 19l16.15 31.17zm-11-59.71h-13.3v19.09h13.3c6.2 0 10.26-4 10.26-9.55s-4.03-9.54-10.23-9.54zm81.99 59.71l-4.26-12.79h-25.7l-4.36 12.79h-14.73l26.3-72.31h11.07l26.41 72.31zM317 36.58l-9.14 26.3h18zm80.38 50.98l-28.64-44.38v44.38h-14.12V15.25h12.6l28.64 44.28V15.25H410v72.31zm71.4-7.56c-5.79 6-12.7 8.22-20.42 8.22a26.6 26.6 0 01-19.49-7.92c-7.32-7.31-7.11-16.35-7.11-28.84s-.21-21.53 7.11-28.84a26.28 26.28 0 0119.49-7.93c16.76 0 25.29 11 27.22 23.16h-14.22c-1.62-6.8-5.78-10.56-13-10.56a11.72 11.72 0 00-9 3.86c-2.75 3-3.46 6.4-3.46 20.31s.71 17.37 3.46 20.41a11.65 11.65 0 009 3.76 13.28 13.28 0 0010.06-4.06 14 14 0 003.25-9.65v-2.79h-13.31V47.35h27.32v10.56c0 10.46-1.82 16.76-6.9 22.09zm18.48 7.56V15.25h47.64v12.6h-33.52v17h28.54V57.4h-28.54V75h33.52v12.56zM186 177.32a26.63 26.63 0 01-19.5-7.92c-7.31-7.31-7.11-16.35-7.11-28.84s-.2-21.53 7.11-28.84a26.64 26.64 0 0119.5-7.93c13.51 0 24.07 7.72 26.61 22.86h-14.29c-1.42-5.79-5.08-10.26-12.19-10.26a11.66 11.66 0 00-9 3.76c-2.74 3-3.55 6.5-3.55 20.41s.81 17.37 3.55 20.41a11.66 11.66 0 009 3.76c7.11 0 10.77-4.47 12.19-10.26h14.32c-2.54 15.14-13.21 22.85-26.64 22.85zm82.48-7.92a28.09 28.09 0 01-39.1 0c-7.32-7.31-7.11-16.35-7.11-28.84s-.21-21.53 7.11-28.84a28.06 28.06 0 0139.1 0c7.31 7.31 7.21 16.35 7.21 28.84s.1 21.53-7.21 28.84zM258 120.25a11.72 11.72 0 00-9-3.86 11.94 11.94 0 00-9.14 3.86c-2.75 3-3.46 6.4-3.46 20.31s.71 17.26 3.46 20.31a11.94 11.94 0 009.14 3.86 11.72 11.72 0 009-3.86c2.74-3.05 3.55-6.4 3.55-20.31s-.79-17.27-3.55-20.31zm69.12 56.46L313 147.87h-10.15v28.84h-14.12V104.4h28.34c14.72 0 23.45 10.06 23.45 22.14a19.47 19.47 0 01-13.2 19l16.15 31.17zm-11-59.71h-13.3v19.09h13.3c6.2 0 10.26-4 10.26-9.55s-4.03-9.54-10.23-9.54zm80.72 59.71l-28.64-44.38v44.38h-14.11V104.4h12.59l28.64 44.28V104.4h14.12v72.31zm27.77 0V104.4h47.63V117h-33.51v17h28.54v12.59h-28.54v17.57h33.51v12.59zm98.39 0l-14.11-28.84h-10.21v28.84h-14.12V104.4h28.34c14.73 0 23.46 10.06 23.46 22.14a19.49 19.49 0 01-13.2 19l16.14 31.17zM512 117h-13.3v19.09H512c6.2 0 10.26-4 10.26-9.55S518.18 117 512 117zm59.39 60.32c-11 0-19.3-2.33-26.41-9.54l9.14-9.14c4.57 4.57 10.77 6.09 17.47 6.09 8.33 0 12.8-3.15 12.8-8.94a8 8 0 00-2.24-6.09c-1.42-1.32-3-2-6.39-2.54l-8.76-1.22c-6.19-.91-10.76-2.84-14-6-3.46-3.45-5.18-8.12-5.18-14.22 0-12.9 9.54-21.94 25.18-21.94 10 0 17.17 2.44 23.36 8.43l-8.93 8.84c-4.57-4.37-10.06-5-14.83-5-7.52 0-11.17 4.17-11.17 9.14a7 7 0 002.13 5.18 12.47 12.47 0 006.7 2.85l8.53 1.22c6.6.91 10.77 2.74 13.82 5.58 3.85 3.66 5.58 8.94 5.58 15.34.01 14.04-11.67 21.96-26.8 21.96z"/><path fill="#fff" d="M26.929 63.98l37.045-37.045L101.02 63.98l-37.046 37.045z"/></svg>